<?xml version="1.0" encoding="UTF-8"?>
<svg xmlns="http://www.w3.org/2000/svg" xmlns:xlink="http://www.w3.org/1999/xlink" viewBox="0 0 48 48" width="48px" height="48px">
<g id="surface52760113">
<path style=" stroke:none;fill-rule:nonzero;fill:rgb(80.000001%,80.000001%,80.000001%);fill-opacity:1;" d="M 13.332031 0 C 5.980469 0 0 5.980469 0 13.332031 L 0 34.667969 C 0 42.019531 5.980469 48 13.332031 48 L 34.667969 48 C 42.019531 48 48 42.019531 48 34.667969 L 48 13.332031 C 48 5.980469 42.019531 0 34.667969 0 Z M 13.332031 5.332031 L 34.667969 5.332031 C 39.078125 5.332031 42.667969 8.921875 42.667969 13.332031 L 42.667969 34.667969 C 42.667969 39.078125 39.078125 42.667969 34.667969 42.667969 L 13.332031 42.667969 C 8.921875 42.667969 5.332031 39.078125 5.332031 34.667969 L 5.332031 13.332031 C 5.332031 8.921875 8.921875 5.332031 13.332031 5.332031 Z M 37.332031 8 C 35.859375 8 34.667969 9.195312 34.667969 10.667969 C 34.667969 12.140625 35.859375 13.332031 37.332031 13.332031 C 38.804688 13.332031 40 12.140625 40 10.667969 C 40 9.195312 38.804688 8 37.332031 8 Z M 24 10.667969 C 16.648438 10.667969 10.667969 16.648438 10.667969 24 C 10.667969 31.351562 16.648438 37.332031 24 37.332031 C 31.351562 37.332031 37.332031 31.351562 37.332031 24 C 37.332031 16.648438 31.351562 10.667969 24 10.667969 Z M 24 16 C 28.410156 16 32 19.589844 32 24 C 32 28.410156 28.410156 32 24 32 C 19.589844 32 16 28.410156 16 24 C 16 19.589844 19.589844 16 24 16 Z M 24 16 "/>
</g>
</svg>
